<?xml version="1.0" encoding="UTF-8"?>
<svg width="80px" height="80px" viewBox="0 0 80 80" version="1.1" xmlns="http://www.w3.org/2000/svg">
    <title>Wix Logo</title>
    <g stroke="none" stroke-width="1" fill="none" fill-rule="evenodd">
        <g transform="translate(8.000000, 16.000000)" fill="#0E1622" fill-rule="nonzero">
            <path d="M21.5857864,0 L0.87398374,39.2 L5.5857864,39.2 L26.2975891,0 L21.5857864,0 Z M42.5857864,0 L21.8739837,39.2 L26.5857864,39.2 L47.2975891,0 L42.5857864,0 Z M38.5857864,23.28 L43.5857864,33.28 L25.9857864,33.28 L30.9857864,23.28 L38.5857864,23.28 Z M55.9857864,39.2 L63.9857864,23.28 L57.5857864,23.28 L53.5857864,32 L49.5857864,23.28 L43.1857864,23.28 L51.1857864,39.2 L55.9857864,39.2 Z M11.1857864,39.2 L19.1857864,23.28 L12.7857864,23.28 L8.78578644,32 L4.78578644,23.28 L-1.61421356,23.28 L6.38578644,39.2 L11.1857864,39.2 Z"></path>
        </g>
    </g>
</svg>